Adsworth-24PT G XT.ufo
<glyph name="quotedbl" format="2">
  <advance width="894"/>
  <unicode hex="0022"/>
  <outline>
    <contour>
      <point x="164" y="962" type="line"/>
      <point x="164" y="1500" type="line"/>
      <point x="317" y="1500" type="line"/>
      <point x="317" y="962" type="line"/>
    </contour>
    <contour>
      <point x="577" y="962" type="line"/>
      <point x="577" y="1500" type="line"/>
      <point x="730" y="1500" type="line"/>
      <point x="730" y="962" type="line"/>
    </contour>
  </outline>
</glyph>
<glyph name="dollar" format="2">
  <advance width="1160"/>
  <unicode hex="0024"/>
  <outline>
    <contour>
      <point x="933" y="419" type="line" smooth="yes"/>
      <point x="933.0" y="526.0"/>
      <point x="796" y="670"/>
      <point x="573" y="726" type="qcurve" smooth="yes"/>
      <point x="323" y="789"/>
      <point x="113" y="970"/>
      <point x="113" y="1135" type="qcurve" smooth="yes"/>
      <point x="113" y="1152" type="line" smooth="yes"/>
      <point x="113" y="1309"/>
      <point x="344" y="1513"/>
      <point x="562" y="1513" type="qcurve" smooth="yes"/>
      <point x="573" y="1513" type="line" smooth="yes"/>
      <point x="804" y="1513"/>
      <point x="1030.0" y="1293"/>
      <point x="1030" y="1110" type="qcurve" smooth="yes"/>
      <point x="1030" y="1086" type="line"/>
      <point x="866" y="1086" type="line"/>
      <point x="866" y="1104" type="line" smooth="yes"/>
      <point x="866.0" y="1224"/>
      <point x="712" y="1366"/>
      <point x="569" y="1366" type="qcurve" smooth="yes"/>
      <point x="559" y="1366" type="line" smooth="yes"/>
      <point x="423" y="1366"/>
      <point x="269.0" y="1264"/>
      <point x="269" y="1171" type="qcurve" smooth="yes"/>
      <point x="269" y="1159" type="line" smooth="yes"/>
      <point x="269" y="1056"/>
      <point x="387" y="936"/>
      <point x="624" y="867" type="qcurve" smooth="yes"/>
      <point x="872" y="795"/>
      <point x="1088" y="615"/>
      <point x="1088" y="448" type="qcurve" smooth="yes"/>
      <point x="1088" y="414" type="line" smooth="yes"/>
      <point x="1088.0" y="231.0"/>
      <point x="839" y="-15"/>
      <point x="592" y="-15" type="qcurve" smooth="yes"/>
      <point x="588" y="-15" type="line" smooth="yes"/>
      <point x="315" y="-15"/>
      <point x="74" y="231.0"/>
      <point x="74" y="406" type="qcurve" smooth="yes"/>
      <point x="74" y="451" type="line"/>
      <point x="245" y="451" type="line"/>
      <point x="245" y="412" type="line" smooth="yes"/>
      <point x="245.0" y="286.0"/>
      <point x="400" y="131"/>
      <point x="586" y="131" type="qcurve" smooth="yes"/>
      <point x="592" y="131" type="line" smooth="yes"/>
      <point x="757" y="131"/>
      <point x="933" y="266"/>
      <point x="933" y="407" type="qcurve" smooth="yes"/>
    </contour>
    <contour>
      <point x="500" y="-100" type="line"/>
      <point x="500" y="791" type="line"/>
      <point x="650" y="791" type="line"/>
      <point x="650" y="-100" type="line"/>
    </contour>
    <contour>
      <point x="510" y="800" type="line"/>
      <point x="510" y="1593" type="line"/>
      <point x="660" y="1593" type="line"/>
      <point x="660" y="800" type="line"/>
    </contour>
  </outline>
</glyph>
<glyph name="percent" format="2">
  <advance width="2016"/>
  <unicode hex="0025"/>
  <outline>
    <contour>
      <point x="466" y="619" type="line" smooth="yes"/>
      <point x="301" y="619"/>
      <point x="60" y="859"/>
      <point x="60" y="1050" type="qcurve" smooth="yes"/>
      <point x="60" y="1079" type="line" smooth="yes"/>
      <point x="60" y="1270"/>
      <point x="298" y="1520"/>
      <point x="464" y="1520" type="qcurve" smooth="yes"/>
      <point x="469" y="1520" type="line" smooth="yes"/>
      <point x="638" y="1520"/>
      <point x="886" y="1270"/>
      <point x="886" y="1079" type="qcurve" smooth="yes"/>
      <point x="886" y="1050" type="line" smooth="yes"/>
      <point x="886" y="859"/>
      <point x="642" y="619"/>
      <point x="472" y="619" type="qcurve" smooth="yes"/>
    </contour>
    <contour>
      <point x="470" y="756" type="line" smooth="yes"/>
      <point x="588" y="756"/>
      <point x="728" y="920"/>
      <point x="728" y="1053" type="qcurve" smooth="yes"/>
      <point x="728" y="1074" type="line" smooth="yes"/>
      <point x="728" y="1208"/>
      <point x="591" y="1378"/>
      <point x="470" y="1378" type="qcurve" smooth="yes"/>
      <point x="466" y="1378" type="line" smooth="yes"/>
      <point x="353" y="1378"/>
      <point x="220" y="1208"/>
      <point x="220" y="1074" type="qcurve" smooth="yes"/>
      <point x="220" y="1053" type="line" smooth="yes"/>
      <point x="220" y="920"/>
      <point x="350" y="756"/>
      <point x="466" y="756" type="qcurve" smooth="yes"/>
    </contour>
    <contour>
      <point x="1536" y="-21" type="line" smooth="yes"/>
      <point x="1371" y="-21"/>
      <point x="1130" y="219"/>
      <point x="1130" y="410" type="qcurve" smooth="yes"/>
      <point x="1130" y="439" type="line" smooth="yes"/>
      <point x="1130" y="630"/>
      <point x="1368" y="880"/>
      <point x="1534" y="880" type="qcurve" smooth="yes"/>
      <point x="1539" y="880" type="line" smooth="yes"/>
      <point x="1708" y="880"/>
      <point x="1956" y="630"/>
      <point x="1956" y="439" type="qcurve" smooth="yes"/>
      <point x="1956" y="410" type="line" smooth="yes"/>
      <point x="1956" y="219"/>
      <point x="1712" y="-21"/>
      <point x="1542" y="-21" type="qcurve" smooth="yes"/>
    </contour>
    <contour>
      <point x="1540" y="116" type="line" smooth="yes"/>
      <point x="1658" y="116"/>
      <point x="1798" y="280"/>
      <point x="1798" y="413" type="qcurve" smooth="yes"/>
      <point x="1798" y="434" type="line" smooth="yes"/>
      <point x="1798" y="568"/>
      <point x="1661" y="738"/>
      <point x="1540" y="738" type="qcurve" smooth="yes"/>
      <point x="1536" y="738" type="line" smooth="yes"/>
      <point x="1423" y="738"/>
      <point x="1290" y="568"/>
      <point x="1290" y="434" type="qcurve" smooth="yes"/>
      <point x="1290" y="413" type="line" smooth="yes"/>
      <point x="1290" y="280"/>
      <point x="1420" y="116"/>
      <point x="1536" y="116" type="qcurve" smooth="yes"/>
    </contour>
    <contour>
      <point x="512" y="0" type="line"/>
      <point x="1352" y="1500" type="line"/>
      <point x="1512" y="1500" type="line"/>
      <point x="672" y="0" type="line"/>
    </contour>
  </outline>
</glyph>
<glyph name="quotesingle" format="2">
  <advance width="581"/>
  <unicode hex="0027"/>
  <outline>
    <contour>
      <point x="214" y="962" type="line"/>
      <point x="214" y="1500" type="line"/>
      <point x="367" y="1500" type="line"/>
      <point x="367" y="962" type="line"/>
    </contour>
  </outline>
</glyph>
<glyph name="asterisk" format="2">
  <advance width="1245"/>
  <unicode hex="002A"/>
  <outline>
    <contour>
      <point x="622" y="892" type="line"/>
      <point x="367" y="532" type="line"/>
      <point x="252" y="617" type="line"/>
      <point x="514" y="972" type="line"/>
      <point x="96" y="1105" type="line"/>
      <point x="142" y="1245" type="line"/>
      <point x="554" y="1100" type="line"/>
      <point x="550" y="1548" type="line"/>
      <point x="694" y="1548" type="line"/>
      <point x="689" y="1100" type="line"/>
      <point x="1103" y="1245" type="line"/>
      <point x="1149" y="1106" type="line"/>
      <point x="730" y="972" type="line"/>
      <point x="992" y="617" type="line"/>
      <point x="876" y="532" type="line"/>
    </contour>
  </outline>
</glyph>
<glyph name="plus" format="2">
  <advance width="1500"/>
  <unicode hex="002B"/>
  <outline>
    <contour>
      <point x="1226" y="690" type="line"/>
      <point x="266" y="690" type="line"/>
      <point x="266" y="835" type="line"/>
      <point x="1226" y="835" type="line"/>
    </contour>
    <contour>
      <point x="818.0" y="1242.0" type="line"/>
      <point x="818.0" y="282.0" type="line"/>
      <point x="673.0" y="282.0" type="line"/>
      <point x="673.0" y="1242.0" type="line"/>
    </contour>
  </outline>
</glyph>
<glyph name="comma" format="2">
  <advance width="600"/>
  <unicode hex="002C"/>
  <outline>
    <contour>
      <point x="175" y="-189" type="line"/>
      <point x="232" y="100" type="line" smooth="yes"/>
      <point x="242" y="149"/>
      <point x="293" y="210"/>
      <point x="342" y="210" type="qcurve" smooth="yes"/>
      <point x="350" y="210.0" type="line" smooth="yes"/>
      <point x="396" y="210.0"/>
      <point x="441" y="149.0"/>
      <point x="441" y="108.0" type="qcurve" smooth="yes"/>
      <point x="441" y="97" type="line" smooth="yes"/>
      <point x="441" y="58"/>
      <point x="340" y="-127"/>
      <point x="282" y="-229" type="qcurve"/>
    </contour>
  </outline>
</glyph>
<glyph name="hyphen" format="2">
  <advance width="1432"/>
  <unicode hex="002D"/>
  <outline>
    <contour>
      <point x="1166" y="662" type="line"/>
      <point x="266" y="662" type="line"/>
      <point x="266" y="815" type="line"/>
      <point x="1166" y="815" type="line"/>
    </contour>
  </outline>
</glyph>
<glyph name="two" format="2">
  <advance width="930"/>
  <unicode hex="0032"/>
  <outline>
    <contour>
      <point x="905" y="0" type="line"/>
      <point x="35" y="0" type="line"/>
      <point x="35" y="135" type="line"/>
      <point x="612" y="871" type="line" smooth="yes"/>
      <point x="662" y="934"/>
      <point x="725" y="1062"/>
      <point x="725" y="1152" type="qcurve" smooth="yes"/>
      <point x="725" y="1156" type="line" smooth="yes"/>
      <point x="725" y="1259"/>
      <point x="590" y="1372"/>
      <point x="458" y="1372" type="qcurve" smooth="yes"/>
      <point x="443" y="1372" type="line" smooth="yes"/>
      <point x="320" y="1372"/>
      <point x="170" y="1253"/>
      <point x="167" y="1140" type="qcurve" smooth="yes"/>
      <point x="166" y="1108" type="line"/>
      <point x="9" y="1110" type="line"/>
      <point x="11" y="1170" type="line" smooth="yes"/>
      <point x="16" y="1327"/>
      <point x="251.0" y="1520.0"/>
      <point x="448" y="1520" type="qcurve" smooth="yes"/>
      <point x="467" y="1520" type="line" smooth="yes"/>
      <point x="671.0" y="1520.0"/>
      <point x="889" y="1312"/>
      <point x="889" y="1166" type="qcurve" smooth="yes"/>
      <point x="889" y="1159" type="line" smooth="yes"/>
      <point x="889.0" y="1041.0"/>
      <point x="820" y="893"/>
      <point x="776" y="838" type="qcurve" smooth="yes"/>
      <point x="227" y="145" type="line"/>
      <point x="905" y="145" type="line"/>
    </contour>
  </outline>
</glyph>
<glyph name="question" format="2">
  <advance width="1041"/>
  <unicode hex="003F"/>
  <outline>
    <contour>
      <point x="514" y="-16" type="line" smooth="yes"/>
      <point x="566" y="-16"/>
      <point x="626" y="44"/>
      <point x="626" y="93" type="qcurve" smooth="yes"/>
      <point x="626" y="100" type="line" smooth="yes"/>
      <point x="626" y="149"/>
      <point x="567" y="210"/>
      <point x="514" y="210" type="qcurve" smooth="yes"/>
      <point x="512" y="210" type="line" smooth="yes"/>
      <point x="463" y="210"/>
      <point x="406" y="149"/>
      <point x="406" y="100" type="qcurve" smooth="yes"/>
      <point x="406" y="93" type="line" smooth="yes"/>
      <point x="406" y="43"/>
      <point x="462" y="-16"/>
      <point x="512" y="-16" type="qcurve" smooth="yes"/>
    </contour>
    <contour>
      <point x="586" y="410" type="line"/>
      <point x="434" y="410" type="line"/>
      <point x="432" y="821" type="line"/>
      <point x="605" y="858"/>
      <point x="766" y="986"/>
      <point x="766" y="1111" type="qcurve" smooth="yes"/>
      <point x="766" y="1128" type="line" smooth="yes"/>
      <point x="766.0" y="1240"/>
      <point x="628" y="1373.0"/>
      <point x="517" y="1373" type="qcurve" smooth="yes"/>
      <point x="513" y="1373" type="line" smooth="yes"/>
      <point x="389" y="1373"/>
      <point x="255.0" y="1246"/>
      <point x="255" y="1142" type="qcurve" smooth="yes"/>
      <point x="255" y="1120" type="line"/>
      <point x="91" y="1120" type="line"/>
      <point x="91" y="1149" type="line" smooth="yes"/>
      <point x="91" y="1326"/>
      <point x="332" y="1523"/>
      <point x="512" y="1523" type="qcurve" smooth="yes"/>
      <point x="518" y="1523" type="line" smooth="yes"/>
      <point x="696" y="1523"/>
      <point x="934" y="1308"/>
      <point x="934" y="1141" type="qcurve" smooth="yes"/>
      <point x="934" y="1115" type="line" smooth="yes"/>
      <point x="934" y="955"/>
      <point x="723" y="758"/>
      <point x="585" y="725" type="qcurve"/>
    </contour>
  </outline>
</glyph>
<glyph name="at" format="2">
  <advance width="1801"/>
  <unicode hex="0040"/>
  <outline>
    <contour>
      <point x="1202" y="741" type="qcurve" smooth="yes"/>
      <point x="1197" y="712" type="line" smooth="yes"/>
      <point x="1165" y="525"/>
      <point x="963" y="301"/>
      <point x="797" y="301" type="qcurve" smooth="yes"/>
      <point x="791" y="301" type="line" smooth="yes"/>
      <point x="612" y="301"/>
      <point x="432" y="586"/>
      <point x="463" y="764" type="qcurve" smooth="yes"/>
      <point x="468" y="793" type="line" smooth="yes"/>
      <point x="499" y="975"/>
      <point x="749" y="1171"/>
      <point x="907" y="1171" type="qcurve" smooth="yes"/>
      <point x="914" y="1171" type="line" smooth="yes"/>
      <point x="1072" y="1171"/>
      <point x="1234" y="927"/>
    </contour>
    <contour>
      <point x="1123" y="732" type="line" smooth="yes"/>
      <point x="1150" y="869"/>
      <point x="1051" y="1031"/>
      <point x="933" y="1031" type="qcurve" smooth="yes"/>
      <point x="927" y="1031" type="line" smooth="yes"/>
      <point x="784" y="1031"/>
      <point x="647" y="897"/>
      <point x="621" y="768" type="qcurve" smooth="yes"/>
      <point x="617" y="748" type="line" smooth="yes"/>
      <point x="591" y="616"/>
      <point x="699" y="439"/>
      <point x="808" y="439" type="qcurve" smooth="yes"/>
      <point x="814" y="439" type="line" smooth="yes"/>
      <point x="944" y="439"/>
      <point x="1092" y="576"/>
      <point x="1119" y="712" type="qcurve" smooth="yes"/>
    </contour>
    <contour>
      <point x="1088" y="495" type="qcurve" smooth="yes"/>
      <point x="1188" y="1125" type="line"/>
      <point x="1333" y="1125" type="line"/>
      <point x="1237" y="581" type="line" smooth="yes"/>
      <point x="1226" y="521"/>
      <point x="1274" y="450"/>
      <point x="1347" y="450" type="qcurve" smooth="yes"/>
      <point x="1444" y="450"/>
      <point x="1588" y="669"/>
      <point x="1588" y="824" type="qcurve" smooth="yes"/>
      <point x="1588" y="1039"/>
      <point x="1239" y="1382"/>
      <point x="930" y="1382" type="qcurve" smooth="yes"/>
      <point x="627" y="1382"/>
      <point x="251" y="1011"/>
      <point x="251" y="715" type="qcurve" smooth="yes"/>
      <point x="251" y="397"/>
      <point x="622" y="43"/>
      <point x="912" y="43" type="qcurve" smooth="yes"/>
      <point x="1128" y="43"/>
      <point x="1390" y="161"/>
      <point x="1445" y="210" type="qcurve"/>
      <point x="1538" y="98" type="line"/>
      <point x="1436" y="1"/>
      <point x="1118" y="-102"/>
      <point x="907" y="-102" type="qcurve" smooth="yes"/>
      <point x="572" y="-102"/>
      <point x="100" y="322"/>
      <point x="100" y="715" type="qcurve" smooth="yes"/>
      <point x="100" y="1077"/>
      <point x="604" y="1524"/>
      <point x="930" y="1524" type="qcurve" smooth="yes"/>
      <point x="1253" y="1524"/>
      <point x="1731" y="1156"/>
      <point x="1731" y="836" type="qcurve" smooth="yes"/>
      <point x="1731" y="603"/>
      <point x="1488" y="319"/>
      <point x="1327" y="319" type="qcurve" smooth="yes"/>
      <point x="1229" y="319"/>
      <point x="1076" y="424"/>
    </contour>
  </outline>
</glyph>
<glyph name="A" format="2">
  <advance width="1220"/>
  <unicode hex="0041"/>
  <outline>
    <contour>
      <point x="960" y="415" type="line"/>
      <point x="260" y="415" type="line"/>
      <point x="260" y="565" type="line"/>
      <point x="960" y="565" type="line"/>
    </contour>
    <contour>
      <point x="690" y="1500" type="line"/>
      <point x="1240" y="0" type="line"/>
      <point x="1073" y="0" type="line"/>
      <point x="610" y="1285" type="line"/>
      <point x="609" y="1285" type="line"/>
      <point x="140" y="0" type="line"/>
      <point x="-20" y="0" type="line"/>
      <point x="530" y="1500" type="line"/>
    </contour>
  </outline>
</glyph>
<glyph name="B" format="2">
  <advance width="1225"/>
  <unicode hex="0042"/>
  <outline>
    <contour>
      <point x="171" y="0" type="line"/>
      <point x="171" y="1500" type="line"/>
      <point x="331" y="1500" type="line"/>
      <point x="331" y="0" type="line"/>
    </contour>
    <contour>
      <point x="702" y="836" type="line"/>
      <point x="912" y="836"/>
      <point x="1165" y="628"/>
      <point x="1165" y="442" type="qcurve" smooth="yes"/>
      <point x="1165" y="415" type="line" smooth="yes"/>
      <point x="1165" y="235"/>
      <point x="909" y="0"/>
      <point x="706" y="0" type="qcurve" smooth="yes"/>
      <point x="251" y="0" type="line"/>
      <point x="251" y="145" type="line"/>
      <point x="702" y="145" type="line" smooth="yes"/>
      <point x="835" y="145"/>
      <point x="998" y="298"/>
      <point x="998" y="430" type="qcurve" smooth="yes"/>
      <point x="998" y="449" type="line" smooth="yes"/>
      <point x="998" y="578"/>
      <point x="837" y="723"/>
      <point x="702" y="723" type="qcurve" smooth="yes"/>
      <point x="251" y="723" type="line"/>
      <point x="251" y="865" type="line"/>
      <point x="634" y="865" type="line" smooth="yes"/>
      <point x="789" y="865"/>
      <point x="926" y="983"/>
      <point x="926" y="1102" type="qcurve" smooth="yes"/>
      <point x="926" y="1118" type="line" smooth="yes"/>
      <point x="926" y="1222"/>
      <point x="779" y="1355"/>
      <point x="644" y="1355" type="qcurve" smooth="yes"/>
      <point x="251" y="1355" type="line"/>
      <point x="251" y="1500" type="line"/>
      <point x="671" y="1500" type="line" smooth="yes"/>
      <point x="858" y="1500"/>
      <point x="1085" y="1289"/>
      <point x="1085" y="1121" type="qcurve" smooth="yes"/>
      <point x="1085" y="1105" type="line" smooth="yes"/>
      <point x="1085" y="937"/>
      <point x="853" y="725"/>
      <point x="674" y="725" type="qcurve"/>
    </contour>
  </outline>
</glyph>
<glyph name="E" format="2">
  <advance width="1132"/>
  <unicode hex="0045"/>
  <outline>
    <contour>
      <point x="192" y="0" type="line"/>
      <point x="192" y="1500" type="line"/>
      <point x="352" y="1500" type="line"/>
      <point x="352" y="0" type="line"/>
    </contour>
    <contour>
      <point x="992" y="720" type="line"/>
      <point x="272" y="720" type="line"/>
      <point x="272" y="865" type="line"/>
      <point x="992" y="865" type="line"/>
    </contour>
    <contour>
      <point x="1052" y="1355" type="line"/>
      <point x="272" y="1355" type="line"/>
      <point x="272" y="1500" type="line"/>
      <point x="1052" y="1500" type="line"/>
    </contour>
    <contour>
      <point x="1052" y="0" type="line"/>
      <point x="272" y="0" type="line"/>
      <point x="272" y="145" type="line"/>
      <point x="1052" y="145" type="line"/>
    </contour>
  </outline>
</glyph>
<glyph name="T" format="2">
  <advance width="1088"/>
  <unicode hex="0054"/>
  <outline>
    <contour>
      <point x="464" y="0" type="line"/>
      <point x="464" y="1430" type="line"/>
      <point x="624" y="1430" type="line"/>
      <point x="624" y="0" type="line"/>
    </contour>
    <contour>
      <point x="1074" y="1355" type="line"/>
      <point x="14" y="1355" type="line"/>
      <point x="14" y="1500" type="line"/>
      <point x="1074" y="1500" type="line"/>
    </contour>
  </outline>
</glyph>
<glyph name="U" format="2">
  <advance width="1382"/>
  <unicode hex="0055"/>
  <outline>
    <contour>
      <point x="162" y="1500" type="line"/>
      <point x="322" y="1500" type="line"/>
      <point x="322" y="563" type="line" smooth="yes"/>
      <point x="322.0" y="343.0"/>
      <point x="508.0" y="115"/>
      <point x="685" y="115" type="qcurve" smooth="yes"/>
      <point x="693" y="115" type="line" smooth="yes"/>
      <point x="876" y="115"/>
      <point x="1063.0" y="332.0"/>
      <point x="1063" y="563" type="qcurve" smooth="yes"/>
      <point x="1063" y="1500" type="line"/>
      <point x="1220" y="1500" type="line"/>
      <point x="1220" y="528" type="line" smooth="yes"/>
      <point x="1220.0" y="249.0"/>
      <point x="904.0" y="-26.0"/>
      <point x="696" y="-26" type="qcurve" smooth="yes"/>
      <point x="687" y="-26" type="line" smooth="yes"/>
      <point x="438.0" y="-26"/>
      <point x="162" y="296.0"/>
      <point x="162" y="554" type="qcurve" smooth="yes"/>
    </contour>
  </outline>
</glyph>
<glyph name="bracketleft" format="2">
  <advance width="692"/>
  <unicode hex="005B"/>
  <outline>
    <contour>
      <point x="148" y="-280" type="line"/>
      <point x="148" y="1500" type="line"/>
      <point x="309" y="1500" type="line"/>
      <point x="309" y="-280" type="line"/>
    </contour>
    <contour>
      <point x="586" y="-280" type="line"/>
      <point x="229" y="-280" type="line"/>
      <point x="229" y="-135" type="line"/>
      <point x="586" y="-135" type="line"/>
    </contour>
    <contour>
      <point x="586" y="1355" type="line"/>
      <point x="224" y="1355" type="line"/>
      <point x="224" y="1500" type="line"/>
      <point x="586" y="1500" type="line"/>
    </contour>
  </outline>
</glyph>
<glyph name="asciicircum" format="2">
  <advance width="1500"/>
  <unicode hex="005E"/>
  <outline>
    <contour>
      <point x="832.0" y="1513.0" type="line"/>
      <point x="1258.0" y="833.0" type="line"/>
      <point x="1066.0" y="833.0" type="line"/>
      <point x="760.0" y="1335.0" type="line"/>
      <point x="433.0" y="833.0" type="line"/>
      <point x="242.0" y="833.0" type="line"/>
      <point x="672.0" y="1513.0" type="line"/>
    </contour>
  </outline>
</glyph>
<glyph name="c" format="2">
  <advance width="1057"/>
  <unicode hex="0063"/>
  <outline>
    <contour>
      <point x="1022" y="363" type="line"/>
      <point x="1019" y="337" type="line" smooth="yes"/>
      <point x="1001" y="181"/>
      <point x="764" y="-25"/>
      <point x="567" y="-25" type="qcurve" smooth="yes"/>
      <point x="560" y="-25" type="line" smooth="yes"/>
      <point x="346" y="-25"/>
      <point x="60" y="258"/>
      <point x="60" y="484" type="qcurve" smooth="yes"/>
      <point x="60" y="519" type="line" smooth="yes"/>
      <point x="60" y="745"/>
      <point x="337" y="1040"/>
      <point x="548" y="1040" type="qcurve" smooth="yes"/>
      <point x="569" y="1040" type="line" smooth="yes"/>
      <point x="773.0" y="1040.0"/>
      <point x="1005" y="831"/>
      <point x="1018" y="655" type="qcurve" smooth="yes"/>
      <point x="1020" y="628" type="line"/>
      <point x="857" y="628" type="line"/>
      <point x="855" y="651" type="line" smooth="yes"/>
      <point x="845" y="771"/>
      <point x="708" y="903"/>
      <point x="565" y="903" type="qcurve" smooth="yes"/>
      <point x="548" y="903" type="line" smooth="yes"/>
      <point x="398" y="903"/>
      <point x="225" y="685"/>
      <point x="225" y="514" type="qcurve" smooth="yes"/>
      <point x="225" y="487" type="line" smooth="yes"/>
      <point x="225" y="316"/>
      <point x="400.0" y="106"/>
      <point x="553" y="106" type="qcurve" smooth="yes"/>
      <point x="570" y="106" type="line" smooth="yes"/>
      <point x="713" y="106"/>
      <point x="844" y="240"/>
      <point x="861" y="341" type="qcurve" smooth="yes"/>
      <point x="865" y="365" type="line"/>
    </contour>
  </outline>
</glyph>
<glyph name="l" format="2">
  <advance width="572"/>
  <unicode hex="006C"/>
  <outline>
    <contour>
      <point x="148" y="200" type="qcurve" smooth="yes"/>
      <point x="148" y="1500" type="line"/>
      <point x="308" y="1500" type="line"/>
      <point x="308" y="0" type="line"/>
      <point x="240" y="0"/>
      <point x="148.0" y="109.0"/>
    </contour>
    <contour>
      <point x="547" y="20" type="line"/>
      <point x="306" y="0" type="line"/>
      <point x="246" y="135" type="line"/>
      <point x="547" y="145" type="line"/>
    </contour>
  </outline>
</glyph>
<glyph name="braceleft" format="2">
  <advance width="692"/>
  <unicode hex="007B"/>
  <outline>
    <contour>
      <point x="84" y="531" type="line"/>
      <point x="241" y="531"/>
      <point x="356" y="462"/>
      <point x="356" y="425" type="qcurve" smooth="yes"/>
      <point x="356" y="395"/>
      <point x="301" y="326"/>
      <point x="270" y="284" type="qcurve" smooth="yes"/>
      <point x="238" y="240"/>
      <point x="187" y="140"/>
      <point x="187" y="87" type="qcurve" smooth="yes"/>
      <point x="187" y="-23"/>
      <point x="376" y="-234"/>
      <point x="529" y="-304" type="qcurve"/>
      <point x="660" y="-201" type="line"/>
      <point x="527" y="-147"/>
      <point x="362" y="-14"/>
      <point x="362" y="74" type="qcurve" smooth="yes"/>
      <point x="362" y="109"/>
      <point x="407" y="193"/>
      <point x="436" y="235" type="qcurve" smooth="yes"/>
      <point x="469" y="284"/>
      <point x="523" y="376"/>
      <point x="523" y="410" type="qcurve" smooth="yes"/>
      <point x="523" y="486"/>
      <point x="416" y="585"/>
      <point x="317" y="611" type="qcurve"/>
      <point x="416" y="637"/>
      <point x="523" y="736"/>
      <point x="523" y="812" type="qcurve" smooth="yes"/>
      <point x="523" y="846"/>
      <point x="469" y="938"/>
      <point x="436" y="987" type="qcurve" smooth="yes"/>
      <point x="407" y="1029"/>
      <point x="362" y="1113"/>
      <point x="362" y="1148" type="qcurve" smooth="yes"/>
      <point x="362" y="1236"/>
      <point x="527" y="1369"/>
      <point x="660" y="1423" type="qcurve"/>
      <point x="529" y="1526" type="line"/>
      <point x="376" y="1456"/>
      <point x="187" y="1245"/>
      <point x="187" y="1135" type="qcurve" smooth="yes"/>
      <point x="187" y="1082"/>
      <point x="238" y="982"/>
      <point x="270" y="938" type="qcurve" smooth="yes"/>
      <point x="301" y="896"/>
      <point x="356" y="827"/>
      <point x="356.0" y="797" type="qcurve" smooth="yes"/>
      <point x="356" y="760"/>
      <point x="241" y="690"/>
      <point x="84" y="690" type="qcurve"/>
    </contour>
  </outline>
</glyph>
